<svg width="50px" height="50px" viewBox="0 0 6.25 6.25" enable-background="new 0 0 100 100" id="Layer_1" version="1.1" xml:space="preserve" xmlns="http://www.w3.org/2000/svg" xmlns:xlink="http://www.w3.org/1999/xlink"><g><g><path clip-rule="evenodd" fill="#F2F2F2" fill-rule="evenodd" height="79.862" width="64.152" x="9.705" y="10.069" d="M0.607 0.629h4.009v4.991H0.607z"/><path d="M4.701 5.706H0.522V0.544h4.179zm-4.009 -0.17h3.84V0.714H0.692z"/></g><g><path clip-rule="evenodd" fill="#FF7C24" fill-rule="evenodd" height="12.013" width="17.183" x="45.772" y="38.198" d="M2.861 2.387h1.074v0.751H2.861z"/></g><g><path height="2.717" width="18.63" x="20.703" y="36.84" d="M1.294 2.303h1.164v0.169H1.294z"/></g><g><path height="2.717" width="14.895" x="20.909" y="43.477" d="M1.307 2.717h0.931v0.17H1.307z"/></g><g><path height="2.718" width="14.894" x="21.001" y="50.18" d="M1.313 3.136h0.931v0.17H1.313z"/></g><g><path height="2.717" width="32.506" x="20.909" y="57.11" d="M1.307 3.569h2.032v0.17H1.307z"/></g><g><path height="2.717" width="26.907" x="20.909" y="63.748" d="M1.307 3.984h1.682v0.169H1.307z"/></g><g><path clip-rule="evenodd" fill="#39B6CC" fill-rule="evenodd" height="8.618" width="42.204" x="20.751" y="21.039" d="M1.297 1.315h2.638v0.538H1.297z"/></g><g><path clip-rule="evenodd" d="m3.649 3.912 0.116 -0.214 0.156 0.049c0.027 -0.032 0.067 -0.084 0.097 -0.112l-0.056 -0.154 0.218 -0.14 0.118 0.119a0.889 0.889 0 0 1 0.153 -0.043l0.026 -0.159h0.278l0.026 0.159q0.079 0.015 0.153 0.043l0.123 -0.112 0.204 0.127 -0.048 0.159q0.044 0.041 0.083 0.088l0.164 -0.033 0.112 0.203 -0.117 0.118q0.017 0.053 0.027 0.108l0.16 0.039v0.248l-0.16 0.042a1.111 1.111 0 0 1 -0.026 0.103l0.119 0.114 -0.109 0.201 -0.168 -0.025q-0.04 0.048 -0.086 0.091l0.048 0.159 -0.191 0.118 -0.137 -0.103q-0.074 0.028 -0.153 0.043l-0.026 0.16h-0.278L4.45 5.15a0.889 0.889 0 0 1 -0.153 -0.043l-0.131 0.107 -0.197 -0.123 0.048 -0.159a1.111 1.111 0 0 1 -0.083 -0.087l-0.163 0.036 -0.117 -0.214 0.122 -0.111a1.111 1.111 0 0 1 -0.027 -0.108l-0.16 -0.043v-0.236l0.16 -0.051q0.01 -0.053 0.026 -0.104z" fill="#39B6CC" fill-rule="evenodd"/><path d="M4.828 5.396h-0.423l-0.028 -0.174q-0.031 -0.008 -0.062 -0.018l-0.141 0.116 -0.304 -0.189 0.051 -0.172 -0.018 -0.019 -0.176 0.038 -0.179 -0.329 0.132 -0.12 -0.003 -0.012 -0.173 -0.047v-0.363l0.172 -0.054 0.002 -0.007 -0.137 -0.112 0.183 -0.338 0.168 0.052 0.029 -0.034 -0.062 -0.168 0.334 -0.214 0.128 0.13q0.027 -0.009 0.056 -0.016l0.028 -0.174h0.423l0.028 0.174q0.03 0.008 0.059 0.017l0.133 -0.121 0.314 0.195 -0.051 0.172 0.019 0.019 0.178 -0.035 0.172 0.313 -0.127 0.128 0.003 0.013 0.173 0.042v0.381l-0.173 0.046 -0.002 0.009 0.129 0.124 -0.168 0.311 -0.181 -0.027q-0.011 0.013 -0.023 0.025l0.051 0.172 -0.294 0.183 -0.147 -0.111q-0.032 0.011 -0.064 0.019zm-0.278 -0.17h0.134l0.024 -0.147 0.059 -0.011q0.071 -0.013 0.138 -0.039l0.044 -0.017 0.128 0.096 0.086 -0.053 -0.044 -0.147 0.039 -0.036q0.041 -0.038 0.078 -0.082l0.031 -0.037 0.157 0.023 0.049 -0.092 -0.111 -0.107 0.016 -0.051a0.556 0.556 0 0 0 0.023 -0.093l0.01 -0.053 0.148 -0.039v-0.117l-0.148 -0.036 -0.01 -0.054a0.778 0.778 0 0 0 -0.024 -0.097l-0.016 -0.049 0.109 -0.111 -0.051 -0.093 -0.153 0.03 -0.032 -0.039a0.778 0.778 0 0 0 -0.075 -0.079l-0.039 -0.036 0.044 -0.148 -0.095 -0.059 -0.114 0.104 -0.049 -0.019a0.833 0.833 0 0 0 -0.138 -0.039l-0.058 -0.011 -0.024 -0.147H4.55l-0.024 0.147 -0.058 0.011a0.833 0.833 0 0 0 -0.138 0.039l-0.052 0.02 -0.108 -0.11 -0.103 0.066 0.052 0.143 -0.042 0.038a1.111 1.111 0 0 0 -0.073 0.083l-0.017 0.021 -0.036 0.044 -0.143 -0.045 -0.049 0.091 0.117 0.094 -0.018 0.056a0.556 0.556 0 0 0 -0.023 0.093l-0.009 0.05 -0.149 0.047v0.109l0.148 0.04 0.01 0.052q0.009 0.051 0.024 0.097l0.017 0.052 -0.113 0.103 0.054 0.1 0.152 -0.033 0.033 0.04q0.034 0.042 0.075 0.079l0.039 0.036 -0.044 0.148 0.091 0.056 0.122 -0.1 0.046 0.018q0.068 0.026 0.138 0.039l0.059 0.011z"/></g><g><path clip-rule="evenodd" d="M4.616 3.906a0.378 0.378 0 0 1 0.378 0.378 0.378 0.378 0 0 1 -0.378 0.378 0.378 0.378 0 0 1 -0.378 -0.378 0.378 0.378 0 0 1 0.378 -0.378" fill="#F2F2F2" fill-rule="evenodd"/><path d="M4.616 4.746a0.463 0.463 0 0 1 -0.463 -0.463c0 -0.255 0.208 -0.463 0.463 -0.463s0.463 0.208 0.463 0.463a0.463 0.463 0 0 1 -0.463 0.463m0 -0.756a0.294 0.294 0 0 0 -0.293 0.293 0.294 0.294 0 0 0 0.293 0.293 0.294 0.294 0 0 0 0.293 -0.293 0.294 0.294 0 0 0 -0.293 -0.293"/></g><g><path height="2.717" width="28.321" x="20.909" y="70.096" d="M1.307 4.381h1.77v0.169H1.307z"/></g><g><path height="2.717" width="31.395" x="20.909" y="76.732" d="M1.307 4.796h1.962v0.17H1.307z"/></g><g><path height="2.717" width="3.098" x="37.741" y="43.477" d="M2.359 2.717h0.193v0.17h-0.193z"/></g></g></svg>