<svg xmlns="http://www.w3.org/2000/svg" xmlns:xlink="http://www.w3.org/1999/xlink" width="500" zoomAndPan="magnify" viewBox="0 0 375 374.999991" height="500" preserveAspectRatio="xMidYMid meet" version="1.0"><defs><clipPath id="a188006290"><path d="M 131.25 112.5 L 243.75 112.5 L 243.75 262.5 L 131.25 262.5 Z M 131.25 112.5 " clip-rule="nonzero"/></clipPath><clipPath id="9d61f913d5"><path d="M 163.957031 146.167969 L 168.457031 146.167969 L 168.457031 152.167969 L 163.957031 152.167969 Z M 163.957031 146.167969 " clip-rule="nonzero"/></clipPath></defs><g clip-path="url(#a188006290)"><path fill="#a376c8" d="M 235.546875 141.5625 L 214.6875 120.703125 C 210 116.015625 201.09375 112.5 194.765625 112.5 L 142.96875 112.5 C 136.40625 112.5 131.25 117.65625 131.25 124.21875 L 131.25 250.78125 C 131.25 257.34375 136.40625 262.5 142.96875 262.5 L 232.03125 262.5 C 238.59375 262.5 243.75 257.34375 243.75 250.78125 L 243.75 161.484375 C 243.75 154.921875 240 146.015625 235.546875 141.5625 Z M 220.3125 241.171875 L 154.6875 241.171875 C 152.109375 241.171875 150 239.0625 150 236.484375 C 150 233.90625 152.109375 231.796875 154.6875 231.796875 L 220.3125 231.796875 C 222.890625 231.796875 225 233.90625 225 236.484375 C 225 239.0625 222.890625 241.171875 220.3125 241.171875 Z M 220.3125 222.421875 L 154.6875 222.421875 C 152.109375 222.421875 150 220.3125 150 217.734375 C 150 215.15625 152.109375 213.046875 154.6875 213.046875 L 220.3125 213.046875 C 222.890625 213.046875 225 215.15625 225 217.734375 C 225 220.3125 222.890625 222.421875 220.3125 222.421875 Z M 220.3125 203.671875 L 154.6875 203.671875 C 152.109375 203.671875 150 201.5625 150 198.984375 C 150 196.40625 152.109375 194.296875 154.6875 194.296875 L 220.3125 194.296875 C 222.890625 194.296875 225 196.40625 225 198.984375 C 225 201.5625 222.890625 203.671875 220.3125 203.671875 Z M 220.3125 184.921875 L 154.6875 184.921875 C 152.109375 184.921875 150 182.8125 150 180.234375 C 150 177.65625 152.109375 175.546875 154.6875 175.546875 L 220.3125 175.546875 C 222.890625 175.546875 225 177.65625 225 180.234375 C 225 182.8125 222.890625 184.921875 220.3125 184.921875 Z M 229.6875 156.796875 L 206.25 156.796875 C 202.265625 156.796875 199.21875 153.75 199.21875 149.765625 L 199.21875 126.328125 C 199.21875 122.34375 201.5625 121.40625 204.140625 124.21875 L 231.796875 151.875 C 234.375 154.6875 233.671875 156.796875 229.6875 156.796875 Z M 229.6875 156.796875 " fill-opacity="1" fill-rule="nonzero"/></g><g clip-path="url(#9d61f913d5)"><path fill="#100f0d" d="M 164.152344 151.957031 L 164.152344 147.355469 L 164.980469 147.355469 C 165.035156 147.355469 165.078125 147.308594 165.078125 147.25 L 165.078125 146.378906 L 168.257812 146.378906 L 168.257812 151.957031 Z M 164.882812 146.527344 L 164.882812 147.148438 L 164.289062 147.148438 L 164.585938 146.835938 Z M 168.453125 146.277344 C 168.453125 146.21875 168.410156 146.175781 168.355469 146.175781 L 164.980469 146.175781 C 164.972656 146.175781 164.96875 146.175781 164.960938 146.175781 C 164.953125 146.179688 164.945312 146.179688 164.9375 146.183594 C 164.933594 146.1875 164.933594 146.1875 164.929688 146.1875 C 164.921875 146.191406 164.917969 146.199219 164.910156 146.203125 L 163.984375 147.179688 C 163.976562 147.183594 163.972656 147.191406 163.96875 147.199219 C 163.96875 147.203125 163.964844 147.203125 163.964844 147.207031 C 163.960938 147.214844 163.957031 147.222656 163.957031 147.230469 C 163.957031 147.238281 163.953125 147.246094 163.953125 147.25 L 163.953125 152.058594 C 163.953125 152.117188 164 152.160156 164.054688 152.160156 L 168.355469 152.160156 C 168.382812 152.160156 168.40625 152.152344 168.425781 152.132812 C 168.445312 152.113281 168.453125 152.085938 168.453125 152.058594 L 168.453125 146.277344 " fill-opacity="1" fill-rule="nonzero"/></g><path fill="#100f0d" d="M 167.632812 147.894531 L 164.777344 147.894531 C 164.722656 147.894531 164.679688 147.941406 164.679688 148 C 164.679688 148.054688 164.722656 148.101562 164.777344 148.101562 L 167.632812 148.101562 C 167.6875 148.101562 167.730469 148.054688 167.730469 148 C 167.730469 147.941406 167.6875 147.894531 167.632812 147.894531 " fill-opacity="1" fill-rule="nonzero"/><path fill="#100f0d" d="M 167.632812 148.699219 L 164.777344 148.699219 C 164.722656 148.699219 164.679688 148.746094 164.679688 148.804688 C 164.679688 148.859375 164.722656 148.90625 164.777344 148.90625 L 167.632812 148.90625 C 167.6875 148.90625 167.730469 148.859375 167.730469 148.804688 C 167.730469 148.746094 167.6875 148.699219 167.632812 148.699219 " fill-opacity="1" fill-rule="nonzero"/><path fill="#100f0d" d="M 167.632812 149.507812 L 164.777344 149.507812 C 164.722656 149.507812 164.679688 149.550781 164.679688 149.609375 C 164.679688 149.667969 164.722656 149.710938 164.777344 149.710938 L 167.632812 149.710938 C 167.6875 149.710938 167.730469 149.667969 167.730469 149.609375 C 167.730469 149.550781 167.6875 149.507812 167.632812 149.507812 " fill-opacity="1" fill-rule="nonzero"/><path fill="#100f0d" d="M 167.632812 150.3125 L 164.777344 150.3125 C 164.722656 150.3125 164.679688 150.359375 164.679688 150.414062 C 164.679688 150.472656 164.722656 150.519531 164.777344 150.519531 L 167.632812 150.519531 C 167.6875 150.519531 167.730469 150.472656 167.730469 150.414062 C 167.730469 150.359375 167.6875 150.3125 167.632812 150.3125 " fill-opacity="1" fill-rule="nonzero"/></svg>