<svg xmlns="http://www.w3.org/2000/svg" xmlns:xlink="http://www.w3.org/1999/xlink" width="120" zoomAndPan="magnify" viewBox="0 0 90 89.999999" height="120" preserveAspectRatio="xMidYMid meet" version="1.0"><path stroke-linecap="butt" transform="matrix(0.75, 0, 0, 0.75, 30.599999, 43.5)" fill="none" stroke-linejoin="miter" d="M 0.00208482 2.000001 L 38.39792 2.000001 " stroke="#000000" stroke-width="4" stroke-opacity="1" stroke-miterlimit="4"/><path fill="#68c66e" d="M 36.429688 65.292969 C 15.339844 51.59375 20.410156 37.796875 23.683594 31.734375 C 24.859375 29.558594 26.574219 27.59375 28.707031 26.3125 C 36.21875 21.792969 43.015625 30.953125 50.140625 31.847656 C 55.5625 32.53125 63.472656 27.640625 67.757812 31.824219 C 69.515625 33.542969 70.410156 36.050781 70.886719 38.402344 C 73.199219 49.863281 62.359375 63.679688 51.628906 66.804688 C 46.5625 68.28125 40.742188 68.09375 36.429688 65.292969 Z M 36.429688 65.292969 " fill-opacity="0.47" fill-rule="evenodd"/><path fill="#68c66e" d="M 29.191406 29.085938 C 48.636719 13.148438 60.304688 22.125 65.113281 27.0625 C 66.839844 28.835938 68.203125 31.058594 68.789062 33.476562 C 70.847656 41.980469 60.042969 45.6875 57.042969 52.195312 C 54.757812 57.144531 57.050781 66.140625 51.761719 68.957031 C 49.589844 70.109375 46.921875 70.207031 44.53125 69.949219 C 32.878906 68.703125 22.929688 54.234375 23.171875 43.085938 C 23.285156 37.824219 25.214844 32.34375 29.191406 29.085938 Z M 29.191406 29.085938 " fill-opacity="0.47" fill-rule="evenodd"/><path fill="#68c66e" d="M 30.855469 59.453125 C 18.335938 37.679688 29.148438 27.695312 34.828125 23.785156 C 36.867188 22.382812 39.292969 21.414062 41.777344 21.238281 C 50.53125 20.628906 52.398438 31.871094 58.332031 35.902344 C 62.851562 38.972656 72.125 38.210938 74.027344 43.882812 C 74.808594 46.207031 74.460938 48.847656 73.808594 51.160156 C 70.636719 62.410156 54.679688 69.792969 43.699219 67.703125 C 38.515625 66.714844 33.417969 63.90625 30.855469 59.453125 Z M 30.855469 59.453125 " fill-opacity="1" fill-rule="evenodd"/><path fill="#ffffff" d="M 46.105469 34.496094 C 52.667969 34.496094 57.992188 39.808594 57.992188 46.347656 C 57.992188 52.890625 52.667969 58.203125 46.105469 58.203125 C 39.546875 58.203125 34.222656 52.890625 34.222656 46.347656 C 34.222656 39.808594 39.546875 34.496094 46.105469 34.496094 Z M 46.105469 35.742188 C 40.238281 35.742188 35.472656 40.496094 35.472656 46.347656 C 35.472656 52.203125 40.238281 56.957031 46.105469 56.957031 C 51.976562 56.957031 56.742188 52.203125 56.742188 46.347656 C 56.742188 40.496094 51.976562 35.742188 46.105469 35.742188 Z M 46.105469 35.742188 " fill-opacity="1" fill-rule="evenodd"/><path fill="#ffffff" d="M 43.464844 48.847656 C 43.464844 48.847656 43.460938 48.855469 43.460938 48.851562 C 42.777344 47.839844 41.179688 46.324219 40.835938 44.101562 C 40.625 42.738281 41.847656 40.417969 42.5625 40.347656 C 43.417969 40.265625 44.738281 41.078125 44.757812 42.136719 C 44.769531 42.835938 43.671875 43.550781 43.800781 44.339844 C 43.902344 44.964844 44.800781 46.230469 45.289062 46.878906 L 45.296875 46.871094 C 45.296875 46.871094 46.929688 48.972656 47.730469 49.3125 C 48.46875 49.625 49.429688 48.738281 50.105469 48.917969 C 51.128906 49.1875 51.605469 50.664062 51.320312 51.46875 C 51.082031 52.148438 48.527344 52.773438 47.253906 52.242188 C 45.582031 51.546875 44.285156 49.898438 43.464844 48.847656 Z M 43.464844 48.847656 " fill-opacity="1" fill-rule="evenodd"/></svg>